<svg aria-hidden="true" style="position: absolute; width: 0; height: 0; overflow: hidden;" version="1.1" xmlns="http://www.w3.org/2000/svg" xmlns:xlink="http://www.w3.org/1999/xlink">
<defs>
<symbol id="icon-burger" viewBox="0 0 46 32">
<path stroke-linejoin="miter" stroke-linecap="butt" stroke-miterlimit="4" stroke-width="2.2857" d="M0 2.286h45.714"></path>
<path stroke-linejoin="miter" stroke-linecap="butt" stroke-miterlimit="4" stroke-width="2.2857" d="M0 16h45.714"></path>
<path stroke-linejoin="miter" stroke-linecap="butt" stroke-miterlimit="4" stroke-width="2.2857" d="M0 29.714h45.714"></path>
</symbol>
<symbol id="icon-mob-menu--close" viewBox="0 0 32 32">
<path d="M23.733 10.304l-1.504-1.504-5.963 5.963-5.963-5.963-1.504 1.504 5.963 5.963-5.963 5.963 1.504 1.504 5.963-5.963 5.963 5.963 1.504-1.504-5.963-5.963 5.963-5.963z"></path>
</symbol>
<symbol id="icon-vector" viewBox="0 0 32 32">
<path d="M25.168 13.822l-14.324-12.993c-1.105-1.105-2.896-1.105-4.001 0s-1.105 2.896 0 4.001l12.312 11.17-12.312 11.17c-1.105 1.105-1.105 2.896 0 4.001s2.896 1.105 4.001 0l14.324-12.993c0.597-0.597 0.861-1.395 0.811-2.178 0.048-0.782-0.214-1.58-0.811-2.178z"></path>
</symbol>
<symbol id="icon-arrowright" viewBox="0 0 32 32">
<path d="M16.222 3.867c-1.008 1.008-1.008 2.637 0 3.645l5.911 5.911h-19.555c-1.423 0-2.578 1.155-2.578 2.578s1.155 2.578 2.578 2.578h19.555l-5.911 5.911c-1.008 1.008-1.008 2.637 0 3.645 0.503 0.503 1.163 0.755 1.822 0.755s1.32-0.253 1.822-0.755l12.133-12.133-12.133-12.133c-1.008-1.008-2.637-1.008-3.645 0z"></path>
</symbol>
<symbol id="icon-home" viewBox="0 0 35 32">
<path d="M34.253 15.613c0.599-0.659 0.541-1.669-0.129-2.255l-14.772-12.926c-0.671-0.586-1.745-0.574-2.402 0.028l-14.822 13.587c-0.656 0.602-0.689 1.611-0.071 2.252l0.372 0.387c0.617 0.642 1.613 0.718 2.224 0.17l1.108-0.992v14.523c0 0.891 0.722 1.613 1.612 1.613h5.778c0.89 0 1.612-0.721 1.612-1.613v-10.16h7.37v10.16c-0.013 0.89 0.624 1.612 1.515 1.612h6.123c0.89 0 1.613-0.722 1.613-1.613v-14.318c0 0 0.306 0.268 0.683 0.6s1.168 0.066 1.767-0.594l0.42-0.462z"></path>
</symbol>
<symbol id="icon-facebook" viewBox="0 0 33 32">
<path  d="M16.471 32c8.837 0 16-7.163 16-16s-7.163-16-16-16c-8.837 0-16 7.163-16 16s7.163 16 16 16z"></path>
<path fill="#fff" style="fill: var(--color2, #fff)" d="M20.916 15.981h-2.61v9.618h-3.955v-9.618h-1.881v-3.38h1.881v-2.188c0-1.564 0.739-4.014 3.99-4.014l2.929 0.012v3.281h-2.125c-0.349 0-0.839 0.175-0.839 0.921v1.989h2.955l-0.346 3.377z"></path>
</symbol>
<symbol id="icon-github" viewBox="0 0 32 32">
<path  d="M32 16c0 8.837-7.163 16-16 16s-16-7.163-16-16c0-8.837 7.163-16 16-16s16 7.163 16 16z"></path>
<path fill="#fff" style="fill: var(--color2, #fff)" d="M16 6.588c-5.169 0-9.412 4.242-9.412 9.412 0 4.411 3.095 8.419 7.206 9.412v-3.114c-0.407 0.089-0.782 0.092-1.197-0.030-0.556-0.164-1.008-0.535-1.344-1.1-0.214-0.361-0.593-0.752-0.988-0.723l-0.097-1.099c0.855-0.073 1.595 0.521 2.034 1.258 0.195 0.328 0.419 0.52 0.708 0.605 0.278 0.082 0.577 0.043 0.926-0.081 0.088-0.698 0.407-0.959 0.649-1.326v-0.001c-2.451-0.366-3.428-1.666-3.816-2.693-0.514-1.363-0.238-3.066 0.671-4.142 0.018-0.021 0.050-0.076 0.037-0.114-0.417-1.258 0.091-2.3 0.11-2.41 0.481 0.142 0.559-0.143 2.088 0.786l0.264 0.159c0.111 0.066 0.076 0.028 0.186 0.020 0.639-0.174 1.312-0.269 1.975-0.278 0.668 0.009 1.337 0.104 2.002 0.285l0.086 0.009c-0.008-0.001 0.023-0.005 0.075-0.036 1.911-1.157 1.842-0.779 2.354-0.946 0.018 0.111 0.519 1.169 0.107 2.411-0.056 0.171 1.657 1.739 0.708 4.256-0.388 1.027-1.365 2.328-3.816 2.693v0.001c0.314 0.479 0.692 0.734 0.69 1.722v3.887c4.111-0.993 7.206-5 7.206-9.412 0-5.169-4.242-9.412-9.412-9.412v0z"></path>
</symbol>
<symbol id="icon-telegram" viewBox="0 0 33 32">
<path d="M32.235 16c0 8.837-7.163 16-16 16s-16-7.163-16-16c0-8.837 7.163-16 16-16s16 7.163 16 16z"></path>
<path fill="#fff" style="fill: var(--color2, #fff)" d="M13.102 18.375l-0.318 4.169c0.454 0 0.651-0.182 0.887-0.401l2.13-1.9 4.414 3.017c0.81 0.421 1.38 0.199 1.598-0.695l2.898-12.673c0.257-1.117-0.433-1.554-1.222-1.28l-17.032 6.086c-1.162 0.421-1.145 1.026-0.198 1.3l4.355 1.264 10.115-5.907c0.476-0.294 0.909-0.131 0.553 0.163l-8.182 6.857z"></path>
</symbol>
<symbol id="untitled" viewBox="0 0 43 32">
<path fill="#e1e1e1" style="fill: var(--color1, #e1e1e1)" d="M32.014 0c1.928 0 3.75 0.52 5.464 1.561s3.107 2.537 4.178 4.488c1.029 1.951 1.543 4.25 1.543 6.894s-0.643 5.225-1.928 7.74c-0.429 0.91-1.2 2.081-2.315 3.512-1.157 1.43-2.228 2.666-3.214 3.707l-4.050 4.098-2.893-4.813c2.063-1.302 3.824-2.855 5.306-4.646l0.030-0.037c1.542-1.821 2.314-3.49 2.314-5.008 0-0.781-0.171-1.41-0.514-1.886-1.5 1.084-3.172 1.626-5.014 1.626-1.328 0-2.593-0.412-3.793-1.236-1.237-0.782-2.237-1.834-2.935-3.078l-0.022-0.043c-0.771-1.258-1.157-2.558-1.157-3.902 0-1.518 0.45-2.97 1.35-4.358 0.866-1.389 2.011-2.526 3.364-3.356l0.044-0.025c1.37-0.824 2.784-1.236 4.242-1.236zM8.936 0c1.928 0 3.75 0.52 5.464 1.561s3.107 2.536 4.178 4.488c1.029 1.951 1.543 4.25 1.543 6.894 0 1.864-0.236 3.534-0.707 5.008-0.472 1.518-1.286 3.1-2.443 4.748-1.114 1.561-2.164 2.862-3.15 3.902-0.986 1.084-2.7 2.883-5.143 5.398l-2.893-4.813c2.063-1.302 3.824-2.855 5.306-4.646l0.030-0.037c1.542-1.821 2.314-3.49 2.314-5.008 0-0.781-0.172-1.41-0.514-1.886-1.5 1.084-3.172 1.626-5.014 1.626-1.328 0-2.593-0.412-3.793-1.236-1.237-0.782-2.237-1.834-2.935-3.078l-0.022-0.043c-0.771-1.258-1.157-2.558-1.157-3.902 0-1.518 0.429-2.97 1.286-4.358 0.866-1.389 2.011-2.526 3.364-3.356l0.045-0.025c1.37-0.824 2.784-1.236 4.242-1.236z"></path>
</symbol>
<symbol id="Ellipse7" viewBox="0 0 32 32">
<path fill="#d9d9d9" style="fill: var(--color2, #d9d9d9)" d="M32 16c0 8.837-7.163 16-16 16s-16-7.163-16-16c0-8.837 7.163-16 16-16s16 7.163 16 16z"></path>
</symbol>
<symbol id="home1" viewBox="0 0 35 32">
<path fill="#d31342" style="fill: var(--color3, #d31342)" d="M34.253 15.613c0.257-0.279 0.414-0.654 0.414-1.064 0-0.475-0.21-0.901-0.543-1.19l-0.002-0.002-14.773-12.925c-0.318-0.269-0.732-0.432-1.184-0.432-0.467 0-0.893 0.174-1.217 0.46l0.002-0.002-14.821 13.589c-0.316 0.288-0.513 0.701-0.513 1.16 0 0.424 0.168 0.809 0.442 1.091l-0-0 0.373 0.387c0.613 0.64 1.611 0.72 2.224 0.171l1.107-0.992v14.523c0 0.893 0.72 1.613 1.613 1.613h5.773c0.891 0 1.613-0.72 1.613-1.613v-10.16h7.373v10.16c-0.013 0.891 0.624 1.613 1.515 1.613h6.123c0.891 0 1.611-0.72 1.611-1.613v-14.32l0.685 0.603c0.376 0.331 1.168 0.064 1.765-0.595l0.421-0.461z"></path>
</symbol>
</defs>
</svg>