<svg aria-hidden="true" style="position: absolute; width: 0; height: 0; overflow: hidden;" version="1.1" xmlns="http://www.w3.org/2000/svg" xmlns:xlink="http://www.w3.org/1999/xlink">
<defs>
<symbol id="icon-burger" viewBox="0 0 46 32">
<path stroke-linejoin="miter" stroke-linecap="butt" stroke-miterlimit="4" stroke-width="2.2857" d="M0 2.286h45.714"></path>
<path stroke-linejoin="miter" stroke-linecap="butt" stroke-miterlimit="4" stroke-width="2.2857" d="M0 16h45.714"></path>
<path stroke-linejoin="miter" stroke-linecap="butt" stroke-miterlimit="4" stroke-width="2.2857" d="M0 29.714h45.714"></path>
</symbol>
<symbol id="icon-mob-menu--close" viewBox="0 0 32 32">
<path d="M23.733 10.304l-1.504-1.504-5.963 5.963-5.963-5.963-1.504 1.504 5.963 5.963-5.963 5.963 1.504 1.504 5.963-5.963 5.963 5.963 1.504-1.504-5.963-5.963 5.963-5.963z"></path>
</symbol>
<symbol id="icon-vector" viewBox="0 0 32 32">
<path d="M25.168 13.822l-14.324-12.993c-1.105-1.105-2.896-1.105-4.001 0s-1.105 2.896 0 4.001l12.312 11.17-12.312 11.17c-1.105 1.105-1.105 2.896 0 4.001s2.896 1.105 4.001 0l14.324-12.993c0.597-0.597 0.861-1.395 0.811-2.178 0.048-0.782-0.214-1.58-0.811-2.178z"></path>
</symbol>
<symbol id="icon-arrowright" viewBox="0 0 32 32">
<path d="M16.222 3.867c-1.008 1.008-1.008 2.637 0 3.645l5.911 5.911h-19.555c-1.423 0-2.578 1.155-2.578 2.578s1.155 2.578 2.578 2.578h19.555l-5.911 5.911c-1.008 1.008-1.008 2.637 0 3.645 0.503 0.503 1.163 0.755 1.822 0.755s1.32-0.253 1.822-0.755l12.133-12.133-12.133-12.133c-1.008-1.008-2.637-1.008-3.645 0z"></path>
</symbol>
<symbol id="icon-home" viewBox="0 0 35 32">
<path d="M34.253 15.613c0.599-0.659 0.541-1.669-0.129-2.255l-14.772-12.926c-0.671-0.586-1.745-0.574-2.402 0.028l-14.822 13.587c-0.656 0.602-0.689 1.611-0.071 2.252l0.372 0.387c0.617 0.642 1.613 0.718 2.224 0.17l1.108-0.992v14.523c0 0.891 0.722 1.613 1.612 1.613h5.778c0.89 0 1.612-0.721 1.612-1.613v-10.16h7.37v10.16c-0.013 0.89 0.624 1.612 1.515 1.612h6.123c0.89 0 1.613-0.722 1.613-1.613v-14.318c0 0 0.306 0.268 0.683 0.6s1.168 0.066 1.767-0.594l0.42-0.462z"></path>
</symbol>
<symbol id="icon-facebook" viewBox="0 0 33 32">
<path  d="M16.471 32c8.837 0 16-7.163 16-16s-7.163-16-16-16c-8.837 0-16 7.163-16 16s7.163 16 16 16z"></path>
<path fill="#fff" style="fill: var(--color2, #fff)" d="M20.916 15.981h-2.61v9.618h-3.955v-9.618h-1.881v-3.38h1.881v-2.188c0-1.564 0.739-4.014 3.99-4.014l2.929 0.012v3.281h-2.125c-0.349 0-0.839 0.175-0.839 0.921v1.989h2.955l-0.346 3.377z"></path>
</symbol>
<symbol id="icon-github" viewBox="0 0 32 32">
<path  d="M32 16c0 8.837-7.163 16-16 16s-16-7.163-16-16c0-8.837 7.163-16 16-16s16 7.163 16 16z"></path>
<path fill="#fff" style="fill: var(--color2, #fff)" d="M16 6.588c-5.169 0-9.412 4.242-9.412 9.412 0 4.411 3.095 8.419 7.206 9.412v-3.114c-0.407 0.089-0.782 0.092-1.197-0.030-0.556-0.164-1.008-0.535-1.344-1.1-0.214-0.361-0.593-0.752-0.988-0.723l-0.097-1.099c0.855-0.073 1.595 0.521 2.034 1.258 0.195 0.328 0.419 0.52 0.708 0.605 0.278 0.082 0.577 0.043 0.926-0.081 0.088-0.698 0.407-0.959 0.649-1.326v-0.001c-2.451-0.366-3.428-1.666-3.816-2.693-0.514-1.363-0.238-3.066 0.671-4.142 0.018-0.021 0.050-0.076 0.037-0.114-0.417-1.258 0.091-2.3 0.11-2.41 0.481 0.142 0.559-0.143 2.088 0.786l0.264 0.159c0.111 0.066 0.076 0.028 0.186 0.020 0.639-0.174 1.312-0.269 1.975-0.278 0.668 0.009 1.337 0.104 2.002 0.285l0.086 0.009c-0.008-0.001 0.023-0.005 0.075-0.036 1.911-1.157 1.842-0.779 2.354-0.946 0.018 0.111 0.519 1.169 0.107 2.411-0.056 0.171 1.657 1.739 0.708 4.256-0.388 1.027-1.365 2.328-3.816 2.693v0.001c0.314 0.479 0.692 0.734 0.69 1.722v3.887c4.111-0.993 7.206-5 7.206-9.412 0-5.169-4.242-9.412-9.412-9.412v0z"></path>
</symbol>
<symbol id="icon-telegram" viewBox="0 0 33 32">
<path d="M32.235 16c0 8.837-7.163 16-16 16s-16-7.163-16-16c0-8.837 7.163-16 16-16s16 7.163 16 16z"></path>
<path fill="#fff" style="fill: var(--color2, #fff)" d="M13.102 18.375l-0.318 4.169c0.454 0 0.651-0.182 0.887-0.401l2.13-1.9 4.414 3.017c0.81 0.421 1.38 0.199 1.598-0.695l2.898-12.673c0.257-1.117-0.433-1.554-1.222-1.28l-17.032 6.086c-1.162 0.421-1.145 1.026-0.198 1.3l4.355 1.264 10.115-5.907c0.476-0.294 0.909-0.131 0.553 0.163l-8.182 6.857z"></path>
</symbol>
</defs>
</svg>